<?xml version="1.0" encoding="utf-8"?>
<!-- Generator: Adobe Illustrator 16.0.0, SVG Export Plug-In . SVG Version: 6.00 Build 0)  -->
<!DOCTYPE svg PUBLIC "-//W3C//DTD SVG 1.1//EN" "http://www.w3.org/Graphics/SVG/1.1/DTD/svg11.dtd">
<svg version="1.1" id="Layer_1" xmlns="http://www.w3.org/2000/svg" xmlns:xlink="http://www.w3.org/1999/xlink" x="0px" y="0px"
	 width="408.393px" height="104.498px" viewBox="0 0 408.393 104.498" enable-background="new 0 0 408.393 104.498"
	 xml:space="preserve">
<g>
	<path fill="#FFFFFF" d="M203.633,56.752c0.879,0.226,1.742,0.339,2.595,0.339c0.848,0,1.713-0.113,2.592-0.339
		c0.879-0.227,1.742-0.512,2.594-0.852v10.971h9.949v1.188h-9.949v28.483c0,0.851,0.057,1.646,0.17,2.381
		c0.113,0.736,0.326,1.402,0.639,1.998c0.312,0.595,0.766,1.062,1.359,1.401c0.596,0.343,1.375,0.512,2.34,0.512
		c1.076,0,1.998-0.227,2.762-0.682c0.767-0.451,1.433-1.032,2-1.741c0.564-0.709,1.033-1.517,1.402-2.425
		c0.367-0.905,0.664-1.784,0.891-2.637l1.277,0.256c-0.34,1.929-0.922,3.474-1.744,4.633c-0.822,1.164-1.758,2.057-2.805,2.681
		c-1.051,0.621-2.168,1.034-3.359,1.231c-1.189,0.199-2.324,0.3-3.4,0.3c-2.948,0-5.229-0.341-6.846-1.021
		c-1.615-0.68-2.805-1.528-3.57-2.551c-0.768-1.021-1.206-2.126-1.319-3.315c-0.113-1.189-0.17-2.295-0.17-3.314V68.06h-5.697
		v-1.188h5.697V55.9C201.891,56.24,202.753,56.525,203.633,56.752"/>
	<polygon fill="#FFFFFF" points="242.562,66.871 242.562,102.153 248.26,102.153 248.26,103.344 226.492,103.344 226.492,102.153 
		232.188,102.153 232.188,68.06 226.492,68.06 226.492,66.871 	"/>
	<path fill="#FFFFFF" d="M252.633,78.519c0.906-2.269,2.257-4.349,4.041-6.248c1.785-1.9,3.966-3.474,6.545-4.722
		c2.58-1.246,5.57-1.871,8.974-1.871c2.151,0,4.108,0.228,5.865,0.683c1.756,0.453,3.272,1.092,4.551,1.914
		c1.272,0.819,2.264,1.813,2.975,2.973c0.709,1.163,1.062,2.454,1.062,3.87c0,1.87-0.482,3.188-1.447,3.952
		c-0.963,0.766-2.324,1.149-4.078,1.149c-1.307,0-2.51-0.241-3.615-0.725c-1.105-0.48-1.656-1.488-1.656-3.019
		c0-0.227,0.07-0.623,0.213-1.189c0.14-0.567,0.281-1.161,0.424-1.787c0.14-0.622,0.281-1.216,0.425-1.784
		c0.141-0.563,0.215-0.963,0.215-1.188c0-1.135-0.5-2.028-1.489-2.681c-0.99-0.649-2.224-0.976-3.697-0.976
		c-2.041,0-3.657,0.48-4.849,1.443c-1.188,0.963-2.112,2.252-2.762,3.869c-0.651,1.614-1.078,3.486-1.274,5.61
		c-0.199,2.128-0.3,4.381-0.3,6.761c0,2.209,0.086,4.42,0.257,6.633c0.17,2.209,0.622,4.224,1.36,6.035
		c0.735,1.815,1.812,3.287,3.229,4.42c1.416,1.137,3.342,1.701,5.781,1.701c2.322,0,4.279-0.408,5.867-1.232
		c1.586-0.821,2.861-1.784,3.826-2.891c0.961-1.105,1.684-2.209,2.166-3.316c0.482-1.104,0.781-1.912,0.895-2.422l1.189,0.426
		c-0.283,1.021-0.723,2.14-1.318,3.357c-0.596,1.221-1.459,2.354-2.592,3.4c-1.136,1.05-2.596,1.943-4.381,2.678
		c-1.785,0.736-4.037,1.107-6.758,1.107c-0.738,0-1.771-0.072-3.104-0.213c-1.332-0.144-2.778-0.455-4.336-0.937
		c-1.562-0.481-3.133-1.149-4.721-1.998c-1.587-0.851-3.046-1.998-4.38-3.444c-1.332-1.446-2.407-3.217-3.229-5.312
		c-0.824-2.096-1.232-4.592-1.232-7.48C251.274,82.969,251.729,80.786,252.633,78.519"/>
	<polygon fill="#FFFFFF" points="305.867,42.042 305.867,82.601 306.293,82.601 322.108,68.06 315.899,68.06 315.899,66.871 
		329.252,66.871 329.252,68.06 323.81,68.06 314.287,77.073 333.758,102.153 337.071,102.153 337.071,103.344 314.541,103.344 
		314.541,102.153 320.662,102.153 306.293,83.789 305.867,83.789 305.867,102.153 311.14,102.153 311.14,103.344 289.883,103.344 
		289.883,102.153 295.494,102.153 295.494,43.23 289.883,43.23 289.883,42.042 	"/>
	<path fill="#FFFFFF" d="M349.494,85.829c0,2.042,0.084,4.098,0.254,6.166c0.172,2.068,0.623,3.939,1.36,5.611
		c0.736,1.674,1.812,3.049,3.23,4.125c1.416,1.076,3.402,1.613,5.951,1.613c2.266,0,4.182-0.425,5.738-1.275
		c1.561-0.85,2.834-1.828,3.828-2.935c0.992-1.104,1.729-2.192,2.211-3.272c0.479-1.075,0.75-1.869,0.809-2.381l1.191,0.428
		c-0.287,1.076-0.769,2.224-1.447,3.441c-0.68,1.221-1.615,2.354-2.807,3.4c-1.189,1.05-2.664,1.929-4.422,2.638
		c-1.757,0.707-3.884,1.062-6.375,1.062c-2.949,0-5.697-0.441-8.248-1.318c-2.552-0.879-4.777-2.153-6.677-3.825
		c-1.899-1.673-3.387-3.713-4.463-6.123c-1.075-2.406-1.614-5.144-1.614-8.205c0-2.437,0.51-4.817,1.528-7.144
		c1.021-2.322,2.424-4.379,4.211-6.162c1.785-1.786,3.881-3.231,6.289-4.337c2.41-1.104,5.004-1.658,7.781-1.658
		c1.983,0,3.967,0.312,5.95,0.936c1.984,0.625,3.771,1.588,5.357,2.891c1.586,1.305,2.889,2.99,3.912,5.059
		c1.021,2.072,1.529,4.551,1.529,7.441h-25.082v3.824H349.494z M363.099,75.117c0-0.622-0.029-1.39-0.084-2.298
		c-0.06-0.904-0.257-1.812-0.597-2.719c-0.342-0.906-0.896-1.672-1.658-2.296c-0.766-0.625-1.825-0.935-3.188-0.935
		c-1.926,0-3.414,0.451-4.463,1.357c-1.051,0.908-1.828,2.057-2.338,3.445c-0.513,1.389-0.838,2.889-0.979,4.506
		c-0.144,1.614-0.24,3.16-0.297,4.635h13.604V75.117L363.099,75.117z"/>
	<path fill="#FFFFFF" d="M387.774,56.752c0.879,0.226,1.742,0.339,2.595,0.339c0.85,0,1.713-0.113,2.593-0.339
		c0.878-0.227,1.745-0.512,2.596-0.852v10.971h9.946v1.188h-9.946v28.483c0,0.851,0.055,1.646,0.17,2.381
		c0.11,0.736,0.323,1.402,0.637,1.998c0.311,0.595,0.764,1.062,1.358,1.401c0.597,0.343,1.375,0.512,2.338,0.512
		c1.076,0,2-0.227,2.765-0.682c0.766-0.451,1.432-1.032,2-1.741c0.563-0.709,1.031-1.517,1.401-2.425
		c0.367-0.905,0.666-1.784,0.892-2.637l1.274,0.256c-0.34,1.929-0.918,3.474-1.741,4.633c-0.822,1.164-1.759,2.057-2.808,2.681
		c-1.049,0.621-2.166,1.034-3.356,1.231c-1.189,0.199-2.324,0.3-3.4,0.3c-2.947,0-5.23-0.341-6.846-1.021
		c-1.615-0.68-2.805-1.528-3.57-2.551c-0.766-1.021-1.205-2.126-1.318-3.315c-0.112-1.189-0.168-2.295-0.168-3.314V68.06h-5.699
		v-1.188h5.699V55.9C386.031,56.24,386.896,56.525,387.774,56.752"/>
	<path fill="#FFFFFF" d="M36.095,104.112c-1.506,0.225-2.908,0.34-4.21,0.34c-2.893,0-5.03-0.512-6.421-1.531
		c-1.388-1.02-2.252-2.438-2.592-4.252h-0.171c-0.906,2.268-2.153,3.799-3.741,4.592c-1.585,0.792-3.882,1.191-6.886,1.191
		c-1.362,0-2.75-0.143-4.166-0.428c-1.418-0.283-2.721-0.734-3.91-1.357c-1.193-0.625-2.156-1.49-2.892-2.596
		C0.37,98.967,0,97.62,0,96.032c0-1.644,0.326-3.019,0.978-4.123c0.651-1.104,1.5-2.041,2.551-2.805
		c1.047-0.767,2.236-1.39,3.571-1.873c1.331-0.479,2.704-0.946,4.124-1.402c2.322-0.68,4.207-1.26,5.653-1.742
		c1.446-0.48,2.565-0.99,3.357-1.529c0.795-0.539,1.35-1.147,1.659-1.828c0.313-0.682,0.469-1.559,0.469-2.636v-5.187
		c0-1.531-0.37-2.92-1.106-4.168c-0.737-1.245-2.128-1.868-4.166-1.868c-1.305,0-2.438,0.295-3.4,0.892
		c-0.966,0.596-1.446,1.688-1.446,3.272c0,0.171,0.028,0.468,0.085,0.894c0.056,0.426,0.112,0.891,0.171,1.402
		c0.054,0.511,0.111,0.992,0.168,1.445c0.056,0.453,0.085,0.766,0.085,0.938c0,0.85-0.199,1.516-0.595,1.998
		c-0.397,0.48-0.863,0.836-1.403,1.061c-0.539,0.228-1.104,0.356-1.7,0.386c-0.594,0.026-1.094,0.04-1.489,0.04
		c-0.565,0-1.146-0.04-1.741-0.127c-0.597-0.086-1.121-0.284-1.574-0.596c-0.454-0.311-0.837-0.752-1.147-1.315
		c-0.311-0.566-0.469-1.332-0.469-2.296c0-1.477,0.411-2.793,1.233-3.955c0.821-1.161,1.913-2.126,3.274-2.893
		c1.36-0.764,2.903-1.345,4.634-1.742c1.727-0.396,3.527-0.596,5.399-0.596c2.153,0,4.181,0.17,6.078,0.512
		c1.899,0.34,3.543,0.965,4.933,1.869c1.388,0.908,2.493,2.142,3.316,3.699c0.821,1.559,1.232,3.528,1.232,5.908v21.086
		c0,1.077,0.156,2.027,0.469,2.848c0.31,0.824,1.09,1.234,2.338,1.234c0.734,0,1.345-0.143,1.828-0.425
		c0.48-0.283,0.949-0.681,1.404-1.191l0.765,0.767C38.743,103.174,37.595,103.883,36.095,104.112 M22.191,82.258
		c-0.113,0.343-0.326,0.668-0.637,0.979c-0.311,0.311-0.867,0.666-1.658,1.062c-1.078,0.509-2.155,1.007-3.23,1.487
		c-1.079,0.482-2.042,1.092-2.891,1.828c-0.85,0.736-1.547,1.643-2.084,2.719c-0.539,1.08-0.806,2.469-0.806,4.168
		c0,0.68,0.041,1.475,0.126,2.379c0.086,0.908,0.311,1.787,0.68,2.637c0.367,0.853,0.92,1.573,1.658,2.168
		c0.736,0.598,1.758,0.894,3.062,0.894c0.735,0,1.458-0.168,2.167-0.511c0.709-0.338,1.345-0.86,1.914-1.571
		c0.564-0.709,1.021-1.644,1.36-2.808c0.339-1.16,0.51-2.562,0.51-4.207V82.258H22.191z"/>
	<path fill="#FFFFFF" d="M85.464,102.153v1.189H69.652v-6.292h-0.17c-0.908,2.384-2.168,4.211-3.783,5.486
		c-1.616,1.274-3.7,1.914-6.25,1.914c-2.779,0-5.301-0.539-7.568-1.616c-2.268-1.076-4.208-2.509-5.824-4.294
		c-1.614-1.785-2.878-3.84-3.784-6.164c-0.906-2.324-1.359-4.763-1.359-7.312c0-1.985,0.353-4.11,1.062-6.377
		c0.708-2.268,1.813-4.367,3.316-6.295c1.5-1.925,3.414-3.526,5.739-4.805c2.324-1.271,5.131-1.912,8.418-1.912
		c2.55,0,4.62,0.596,6.207,1.787c1.586,1.189,2.804,2.975,3.657,5.354h0.169V43.23h-5.781v-1.188h16.155v60.111H85.464z
		 M69.186,79.114c-0.199-2.154-0.611-4.139-1.232-5.951c-0.625-1.815-1.562-3.319-2.808-4.508c-1.247-1.189-2.921-1.784-5.016-1.784
		c-1.418,0-2.622,0.31-3.614,0.934c-0.992,0.624-1.8,1.646-2.423,3.062c-0.624,1.417-1.062,3.304-1.318,5.651
		c-0.255,2.354-0.382,5.229-0.382,8.631c0,2.778,0.069,5.287,0.213,7.524c0.141,2.24,0.453,4.154,0.934,5.74
		c0.482,1.586,1.191,2.804,2.125,3.653c0.936,0.853,2.197,1.274,3.785,1.274c2.381,0,4.237-0.606,5.57-1.827
		c1.331-1.216,2.337-2.748,3.017-4.591c0.682-1.841,1.092-3.825,1.232-5.95c0.143-2.127,0.214-4.068,0.214-5.826
		C69.482,83.278,69.382,81.267,69.186,79.114"/>
	<path fill="#FFFFFF" d="M105.402,66.871v7.142h0.17c1.02-2.156,2.393-4.012,4.125-5.57c1.728-1.559,4.008-2.338,6.844-2.338
		c2.381,0,4.306,0.639,5.781,1.914c1.473,1.276,2.211,3.047,2.211,5.312c0,1.701-0.412,3.033-1.235,3.997
		c-0.82,0.964-2.139,1.444-3.953,1.444c-1.303,0-2.492-0.268-3.568-0.808c-1.08-0.537-1.617-1.543-1.617-3.021
		c0-0.17,0.028-0.467,0.084-0.893c0.056-0.424,0.127-0.877,0.213-1.359c0.088-0.479,0.155-0.922,0.213-1.317
		c0.056-0.396,0.086-0.623,0.086-0.681c-0.059-0.452-0.144-0.809-0.257-1.063c-0.113-0.256-0.297-0.479-0.552-0.68
		c-0.254-0.197-0.637-0.298-1.148-0.298c-0.567,0-1.276,0.269-2.126,0.807c-0.851,0.54-1.644,1.32-2.379,2.341
		c-0.74,1.019-1.376,2.252-1.913,3.697c-0.542,1.446-0.809,3.078-0.809,4.891v21.765h6.718v1.19H89.673v-1.19h5.525V68.06h-5.525
		v-1.188H105.402z"/>
	<path fill="#FFFFFF" d="M189.544,104.008c-1.502,0.236-2.905,0.356-4.207,0.367c-2.892,0.019-5.035-0.479-6.43-1.491
		c-1.394-1.012-2.266-2.423-2.62-4.236l-0.17,0.004c-0.893,2.272-2.131,3.811-3.711,4.615c-1.583,0.801-3.877,1.215-6.879,1.231
		c-1.361,0.008-2.75-0.124-4.169-0.402c-1.42-0.272-2.727-0.717-3.92-1.334c-1.196-0.612-2.165-1.473-2.907-2.573
		c-0.743-1.103-1.121-2.445-1.131-4.031c-0.009-1.645,0.305-3.021,0.952-4.131c0.644-1.107,1.489-2.049,2.533-2.821
		c1.043-0.771,2.23-1.401,3.558-1.894c1.332-0.488,2.702-0.966,4.117-1.431c2.319-0.692,4.202-1.285,5.643-1.774
		c1.442-0.49,2.558-1.011,3.348-1.554c0.791-0.543,1.342-1.155,1.647-1.838c0.306-0.682,0.458-1.562,0.452-2.639l-0.033-5.188
		c-0.009-1.527-0.388-2.916-1.133-4.156c-0.743-1.242-2.136-1.857-4.176-1.845c-1.306,0.009-2.436,0.312-3.396,0.912
		c-0.961,0.603-1.434,1.697-1.426,3.283c0.002,0.171,0.032,0.467,0.092,0.894c0.059,0.424,0.117,0.892,0.179,1.401
		c0.059,0.51,0.119,0.989,0.179,1.442c0.057,0.455,0.089,0.767,0.091,0.937c0.004,0.851-0.191,1.519-0.584,2.002
		c-0.394,0.483-0.86,0.843-1.394,1.071c-0.539,0.23-1.104,0.361-1.699,0.393c-0.594,0.032-1.092,0.051-1.489,0.053
		c-0.565,0.004-1.146-0.033-1.742-0.117c-0.597-0.08-1.123-0.275-1.577-0.584c-0.457-0.311-0.842-0.747-1.157-1.312
		c-0.315-0.563-0.476-1.327-0.482-2.294c-0.008-1.472,0.392-2.792,1.208-3.96c0.815-1.167,1.901-2.138,3.255-2.912
		c1.357-0.772,2.896-1.362,4.624-1.772c1.726-0.406,3.525-0.615,5.395-0.629c2.154-0.015,4.18,0.146,6.082,0.473
		c1.901,0.328,3.55,0.943,4.943,1.842c1.395,0.896,2.506,2.125,3.341,3.678c0.83,1.553,1.253,3.521,1.269,5.9l0.132,21.086
		c0.006,1.078,0.168,2.027,0.485,2.844c0.316,0.822,1.098,1.229,2.346,1.221c0.738-0.004,1.345-0.149,1.824-0.438
		c0.48-0.286,0.945-0.686,1.397-1.197l0.771,0.76C192.186,103.054,191.043,103.772,189.544,104.008 M175.504,82.243
		c-0.111,0.342-0.321,0.668-0.63,0.982c-0.311,0.313-0.861,0.672-1.651,1.074c-1.074,0.516-2.15,1.02-3.221,1.505
		c-1.076,0.49-2.034,1.106-2.881,1.849c-0.844,0.742-1.534,1.651-2.064,2.731c-0.533,1.082-0.795,2.474-0.782,4.173
		c0.004,0.682,0.05,1.475,0.141,2.379c0.092,0.907,0.324,1.784,0.698,2.633c0.372,0.848,0.93,1.567,1.67,2.158
		c0.74,0.59,1.763,0.883,3.068,0.873c0.735-0.006,1.457-0.179,2.163-0.523c0.706-0.346,1.342-0.871,1.904-1.586
		c0.563-0.711,1.011-1.648,1.344-2.814c0.33-1.163,0.494-2.566,0.483-4.21l-0.07-11.226L175.504,82.243z"/>
	<polygon fill="#FFFFFF" points="143.066,66.871 143.066,102.153 148.763,102.153 148.763,103.344 126.999,103.344 126.999,102.153 
		132.694,102.153 132.694,68.06 126.999,68.06 126.999,66.871 	"/>
	<path fill="#FFFFFF" d="M233.123,44.331c1.19-1.19,2.608-1.786,4.252-1.786s3.06,0.596,4.252,1.786
		c1.19,1.191,1.785,2.608,1.785,4.251c0,1.646-0.595,3.06-1.785,4.25c-1.192,1.193-2.608,1.787-4.252,1.787
		s-3.062-0.594-4.252-1.787c-1.188-1.19-1.785-2.604-1.785-4.25C231.338,46.939,231.935,45.522,233.123,44.331"/>
</g>
<path fill="#FFFFFF" d="M167.67,1.796l41.962,27.178c-0.26,0.328-0.664,0.492-1.217,0.492c-6.562,0-13.628-2.438-21.198-7.322
	L158.91,3.938c-3.195,2.079-5.999,3.712-8.408,4.897c-2.41,1.186-5.451,2.411-9.121,3.679c4.679,1.267,7.017,3.799,7.017,7.599
	c0,2.76-1.286,4.978-3.851,6.652c-2.566,1.67-5.536,2.508-8.914,2.508c-3.28,0-5.798-0.697-7.551-2.094
	c-1.752-1.399-2.631-3.283-2.631-5.65c0-1.529,0.367-2.901,1.098-4.117c0.731-1.221,1.666-2.203,2.804-2.951
	c1.143-0.747,3.112-1.737,5.908-2.97c3.058-1.333,5.422-2.525,7.099-3.581c1.675-1.053,5.132-3.628,10.368-7.721
	c-4.424-3.508-7.4-5.78-8.929-6.821c-1.528-1.037-3.677-2.144-6.44-3.312c-3.578-1.56-6.037-2.738-7.371-3.534
	c-1.332-0.792-2.414-1.876-3.247-3.239c-0.825-1.364-1.242-2.838-1.242-4.432c-0.002-2.338,0.954-4.264,2.852-5.773
	c1.899-1.509,4.44-2.266,7.623-2.266c3.573,0,6.543,0.871,8.914,2.607c2.373,1.739,3.559,4.002,3.555,6.794
	c0,3.964-2.419,6.496-7.256,7.602c6.112,1.786,12.018,4.612,17.723,8.476l27.844-17.734c8.05-5.098,15.269-7.647,21.662-7.647
	c0.649,0,1.104,0.164,1.36,0.487L167.67-1.565l-2.433,1.704L167.67,1.796z M138.604,15.193c-2.825,0-5.146,0.521-6.968,1.56
	c-1.814,1.039-2.726,2.502-2.725,4.381c0,1.431,0.526,2.6,1.585,3.507c1.053,0.915,2.701,1.368,4.943,1.368
	c2.531,0.001,4.74-0.506,6.624-1.509c1.883-1.008,2.825-2.469,2.825-4.385C144.888,16.835,142.792,15.193,138.604,15.193
	 M135.447-25.729c-2.129,0-3.745,0.439-4.841,1.314c-1.098,0.879-1.647,2.016-1.651,3.411c0.004,1.787,0.906,3.265,2.715,4.435
	c1.808,1.169,4.048,1.752,6.73,1.755c2.13-0.003,3.763-0.446,4.892-1.341c1.13-0.894,1.695-2.054,1.695-3.484
	c0-1.95-0.96-3.449-2.882-4.508C140.184-25.199,137.965-25.73,135.447-25.729"/>
</svg>
